<svg id="Group_154" data-name="Group 154" xmlns="http://www.w3.org/2000/svg" viewBox="9472 3536 52 23">
  <defs>
    <style>
      .cls-1 {
        fill-rule: evenodd;
      }

      .cls-2 {
        fill: #2d001f;
        font-size: 20px;
        font-family: HelveticaNeue, Helvetica Neue;
      }
    </style>
  </defs>
  <path id="ruby" class="cls-1" d="M13.437.056a2.833,2.833,0,0,1,2.553,3.18l.01-.02-.91,11.925-11.83.81h.01C2.288,15.91.1,15.82,0,12.76l1.1-2,1.88,4.39.335.782,1.87-6.1-.02.005.01-.02,6.17,1.97-.93-3.62-.66-2.6,5.88-.38-.41-.34L11,1.41,13.44.05ZM0,12.726v0ZM3.42,3.383C5.794,1.028,8.858-.364,10.034.823s-.07,4.07-2.448,6.424S2.184,11.07,1.01,9.885s.03-4.145,2.408-6.5Z" transform="translate(9508 3541.95)"/>
  <path id="react" class="cls-1" d="M8.007,2.65l.007-.008a9.278,9.278,0,0,1,1.062-.887q.222-.158.457-.3.2-.12.417-.224c.11-.05.22-.1.333-.14a3.2,3.2,0,0,1,.31-.1A2.694,2.694,0,0,1,11.08.9h.182a.656.656,0,0,1,.14.01,1.519,1.519,0,0,1,.3.06,2.443,2.443,0,0,1,.24.1c.05.03.09.06.14.09a1.287,1.287,0,0,1,.21.19c.05.07.11.13.15.2a2.546,2.546,0,0,1,.24.5c.02.05.03.1.05.16s.03.14.05.21c.02.09.03.18.05.27l.03.34c.01.14.01.29.01.44a5.441,5.441,0,0,1-.03.57c-.03.24-.06.47-.1.7-.03.14-.05.28-.08.42l-.06.24.13.04c.24.07.47.15.71.24.18.07.37.15.55.24.16.08.32.16.47.25a4,4,0,0,1,.48.32c.13.1.26.21.38.32a3.329,3.329,0,0,1,.25.28,2.326,2.326,0,0,1,.17.26,1.966,1.966,0,0,1,.16.4,1.09,1.09,0,0,1,.03.26,1.028,1.028,0,0,1-.01.17,1.4,1.4,0,0,1-.06.28,1.089,1.089,0,0,1-.1.25,2.562,2.562,0,0,1-.33.48,1.538,1.538,0,0,1-.12.13c-.06.06-.11.11-.17.16a2.028,2.028,0,0,1-.23.18,2.73,2.73,0,0,1-.3.21,3.376,3.376,0,0,1-.41.24c-.18.09-.35.18-.53.26s-.36.15-.55.22c-.16.06-.32.11-.48.16l-.05.02a2.048,2.048,0,0,1,.05.24c.02.12.05.24.07.36.04.24.08.49.1.73.01.19.02.38.02.56,0,.15-.01.3-.02.44-.01.12-.02.23-.04.35-.02.09-.03.19-.05.28l-.06.22c-.04.12-.09.25-.14.37-.05.09-.1.19-.16.28a1.638,1.638,0,0,1-.21.25,1.48,1.48,0,0,1-.29.22,1.3,1.3,0,0,1-.25.1,1.916,1.916,0,0,1-.42.068,2.4,2.4,0,0,1-.57-.06,2.74,2.74,0,0,1-.34-.1,2.862,2.862,0,0,1-.37-.15,4.573,4.573,0,0,1-.43-.22,4.664,4.664,0,0,1-.47-.3,8.713,8.713,0,0,1-1.1-.91l-.08.07c-.16.15-.32.29-.48.43s-.34.26-.52.39c-.16.11-.32.21-.49.31s-.33.17-.49.24c-.12.05-.24.1-.36.14a2.812,2.812,0,0,1-.35.09,2.42,2.42,0,0,1-.56.056,1.308,1.308,0,0,1-.44-.07.959.959,0,0,1-.26-.11,1.26,1.26,0,0,1-.26-.2.234.234,0,0,1-.07-.07,1.719,1.719,0,0,1-.33-.51l-.03-.09c-.01-.04-.03-.08-.04-.11-.02-.05-.03-.11-.05-.16-.02-.07-.03-.13-.05-.2A2.481,2.481,0,0,1,3,13.442c-.01-.11-.03-.23-.03-.34-.01-.15-.01-.29-.01-.44a5.115,5.115,0,0,1,.03-.56c.02-.24.06-.47.1-.71l.12-.57-.2-.06c-.24-.073-.47-.16-.7-.25a4.84,4.84,0,0,1-.47-.21,4.36,4.36,0,0,1-.42-.23,4.515,4.515,0,0,1-.508-.33q-.195-.15-.39-.33A.445.445,0,0,0,.39,9,2.441,2.441,0,0,1,.2,8.718a2.009,2.009,0,0,1-.126-.284C.064,8.39.05,8.344.04,8.3A1.17,1.17,0,0,1,0,8.018,1.741,1.741,0,0,1,.008,7.84c.006-.044.013-.09.023-.133L.06,7.6a1.826,1.826,0,0,1,.31-.58c.018-.026.037-.05.057-.074s.053-.063.08-.093.077-.082.118-.122l.17-.15c.075-.06.15-.12.228-.18.1-.07.2-.14.31-.21.13-.08.266-.16.4-.23.176-.09.356-.17.54-.25a9.027,9.027,0,0,1,1.012-.35l.08-.02c-.05-.21-.1-.42-.14-.63s-.08-.45-.1-.68c-.02-.18-.03-.36-.04-.55-.01-.14,0-.29,0-.44a1.841,1.841,0,0,1,.03-.33,2.512,2.512,0,0,1,.04-.27,1.6,1.6,0,0,1,.05-.21.983.983,0,0,1,.05-.16l.04-.1a.355.355,0,0,1,.04-.09,1.822,1.822,0,0,1,.32-.51.9.9,0,0,1,.1-.09c.03-.03.06-.05.09-.08s.09-.06.14-.09a1.089,1.089,0,0,1,.25-.1,1.594,1.594,0,0,1,.3-.06c.03,0,.06-.01.09-.01h.15l.11.01a4.048,4.048,0,0,1,.48.09c.1.03.21.06.31.1s.21.09.32.14c.16.08.31.16.46.25s.32.2.48.31q.27.195.54.42c.14.12.27.24.41.36l.09.09Zm4.007,8.2c-.117.027-.235.053-.353.076q-.405.083-.81.142c-.29.042-.58.077-.88.1-.04.01-.08.01-.12.02-.18.27-.38.54-.58.79-.21.28-.43.55-.66.8l-.1.11a8.044,8.044,0,0,0,.95.8c.14.1.28.19.42.28.12.08.25.14.38.21a3.454,3.454,0,0,0,.34.14,2.288,2.288,0,0,0,.28.08,1,1,0,0,0,.24.04,1.408,1.408,0,0,0,.2.01.765.765,0,0,0,.3-.06l.08-.04a.471.471,0,0,0,.15-.13,1.882,1.882,0,0,0,.16-.23.558.558,0,0,0,.05-.08l.05-.12a.749.749,0,0,0,.05-.16,1.462,1.462,0,0,0,.05-.2c.02-.09.03-.18.05-.27a2.582,2.582,0,0,0,.03-.29,4.847,4.847,0,0,0-.01-.66c-.01-.21-.04-.43-.07-.64-.03-.17-.06-.35-.1-.52l-.04-.17Zm-7.993.03-.06.29a8.519,8.519,0,0,0-.15,1.007c-.02.224-.02.45-.02.674.01.09.01.19.02.29s.03.17.04.26c.01.06.03.13.04.19s.03.1.05.15.03.08.05.12l.05.09a.209.209,0,0,0,.04.06l.03.05.03.04a.669.669,0,0,0,.21.2l.06.03a.784.784,0,0,0,.14.05,1.355,1.355,0,0,0,.2.02,1.275,1.275,0,0,0,.2-.01c.08-.01.16-.03.24-.04a2.288,2.288,0,0,0,.28-.08c.11-.04.21-.08.32-.13a4.133,4.133,0,0,0,.42-.22c.15-.09.3-.19.45-.29s.3-.22.44-.34c.09-.07.17-.14.26-.22.07-.07.15-.13.22-.2l.03-.03-.17-.19c-.23-.26-.45-.53-.67-.8-.18-.23-.36-.47-.53-.71h-.06c-.31-.03-.62-.06-.92-.1-.28-.04-.56-.09-.84-.14l-.33-.07Zm4.95.362c-.3.014-.61.02-.92.022-.29,0-.58,0-.88-.015l-.1,0,.21.262c.2.246.4.486.61.72a2.281,2.281,0,0,0,.16.17l.08-.09c.21-.237.41-.483.61-.735.08-.1.17-.21.25-.33Zm.5-5.762c-.31-.024-.63-.04-.95-.048-.15,0-.3-.006-.46-.007h-.07c-.15,0-.29,0-.44.006-.33,0-.66.02-.99.04-.19.28-.37.56-.55.85-.2.33-.39.67-.57,1.01-.11.21-.22.43-.33.65.12.24.24.48.37.71.19.35.39.69.59,1.03.17.26.34.53.51.78l.6.03c.29.01.57.01.86.01.49,0,.98-.02,1.46-.05.17-.25.33-.51.49-.76.35-.58.68-1.17.97-1.78-.1-.21-.2-.41-.31-.61-.14-.27-.29-.53-.44-.78-.21-.36-.43-.72-.67-1.07l-.04-.06Zm-4.74,3.33c-.07.18-.15.366-.22.55q-.165.427-.3.86c.17.04.35.072.52.1.25.044.51.08.76.112.07.01.14.017.21.024-.11-.173-.22-.348-.32-.524-.22-.368-.43-.744-.63-1.125Zm6.57-.026c-.1.2-.21.39-.31.585-.12.216-.24.43-.37.644-.08.15-.17.29-.26.44l.15-.02c.25-.03.5-.07.74-.11.2-.03.41-.07.61-.12-.08-.27-.18-.54-.29-.81-.07-.2-.16-.4-.24-.59Zm-7.74-2.8-.22.066c-.24.075-.49.16-.72.258-.14.058-.28.12-.42.19s-.29.152-.44.24a3.537,3.537,0,0,0-.36.248,2.544,2.544,0,0,0-.25.212,2.1,2.1,0,0,0-.19.2c-.04.055-.08.11-.12.17a.939.939,0,0,0-.08.154.605.605,0,0,0-.05.23v.06a.759.759,0,0,0,.06.257l.02.043.03.052.04.07.06.085.08.1c.03.04.07.078.1.115.05.046.09.09.14.134s.11.1.17.143c.08.06.16.12.24.176a3.284,3.284,0,0,0,.31.2c.14.08.28.15.42.22.17.08.35.16.52.23s.31.12.46.16l.23.07.21-.63c.13-.35.26-.69.41-1.03l.18-.38-.17-.38c-.15-.34-.29-.7-.42-1.05-.07-.19-.14-.39-.2-.59Zm8.91.01c-.05.172-.11.343-.17.513a10.61,10.61,0,0,1-.42,1.06l-.19.425.24.52c.15.325.28.654.4.987a5.165,5.165,0,0,1,.18.52l.12-.036c.14-.04.27-.08.4-.13a5.366,5.366,0,0,0,.78-.33,3.253,3.253,0,0,0,.45-.25,3,3,0,0,0,.37-.25,1.638,1.638,0,0,0,.25-.21,1.986,1.986,0,0,0,.2-.21,1.18,1.18,0,0,0,.21-.32.475.475,0,0,0,.06-.24.085.085,0,0,0,0-.07.453.453,0,0,0-.03-.16.663.663,0,0,0-.09-.19l-.03-.06-.05-.07c-.02-.03-.05-.06-.07-.09s-.06-.07-.1-.11-.09-.08-.13-.12c-.06-.05-.12-.1-.19-.15s-.15-.11-.22-.16a3.207,3.207,0,0,0-.31-.19c-.13-.07-.27-.14-.41-.2-.16-.08-.33-.14-.5-.21-.23-.09-.47-.16-.71-.23ZM8,6.56A1.429,1.429,0,1,1,6.57,7.989,1.43,1.43,0,0,1,8,6.56Zm2.336-.99c.176.274.345.554.508.837.15.262.3.527.44.8q.128-.3.245-.612c.09-.253.18-.508.26-.766-.17-.04-.34-.075-.52-.107-.32-.06-.63-.108-.95-.148Zm-4.67,0c-.145.018-.288.038-.432.06-.245.037-.49.08-.733.13-.09.018-.19.038-.28.06.09.275.18.548.28.817.07.19.15.38.23.567.18-.34.37-.69.57-1.02.13-.2.25-.41.38-.61Zm6.313-.4.03-.133c.04-.174.07-.348.1-.524.04-.228.06-.46.08-.69s.02-.452.01-.678c-.01-.1-.01-.2-.03-.306s-.03-.177-.04-.264c-.02-.068-.03-.135-.05-.2-.02-.05-.03-.1-.05-.15L12,2.1l-.037-.078a.794.794,0,0,0-.04-.07.425.425,0,0,0-.035-.058c-.01-.013-.018-.027-.027-.04a.669.669,0,0,0-.21-.2.25.25,0,0,0-.08-.04.727.727,0,0,0-.23-.05c-.02,0-.04,0-.06,0h-.02a.63.63,0,0,0-.07,0,1.1,1.1,0,0,0-.18.02,1.742,1.742,0,0,0-.22.05l-.27.09c-.1.04-.2.09-.31.14-.13.06-.25.14-.38.21a4.685,4.685,0,0,0-.4.27,8.241,8.241,0,0,0-.91.77l.13.14c.26.28.5.57.73.87.17.21.33.44.49.66l.41.04c.3.03.6.08.9.13.28.04.56.1.83.16ZM7.53,3.137a.549.549,0,0,1-.043-.04c-.13-.12-.262-.24-.4-.354s-.307-.25-.468-.365-.29-.2-.44-.288c-.13-.078-.27-.15-.4-.217-.1-.047-.2-.09-.3-.13s-.19-.064-.28-.09c-.07-.02-.14-.034-.21-.047s-.13-.018-.19-.022l-.07,0h-.01c-.02,0-.04,0-.06,0a.836.836,0,0,0-.29.062.765.765,0,0,0-.09.046.575.575,0,0,0-.15.135,1.1,1.1,0,0,0-.15.228l-.04.084a.358.358,0,0,0-.04.11.784.784,0,0,0-.05.14c-.01.06-.03.13-.04.19-.01.08-.03.16-.04.25a2.642,2.642,0,0,0-.02.29c-.01.22,0,.44.01.66a7.171,7.171,0,0,0,.15,1.02c.02.11.05.22.07.33.1-.03.21-.05.31-.07.24-.05.49-.1.74-.13.27-.05.55-.08.82-.11l.25-.03c.16-.23.33-.45.5-.67.22-.28.45-.56.69-.82l.18-.2Zm.478.488-.163.18q-.321.36-.618.738l-.17.22c.124-.007.247-.012.37-.015.16-.005.32-.007.48-.008h.116c.144,0,.288,0,.432.005.165,0,.33.01.494.017l-.16-.2c-.21-.272-.43-.538-.66-.794L8,3.625Z" transform="translate(9472 3543.099)"/>
  <text id="_" data-name="+" class="cls-2" transform="translate(9492 3555)"><tspan x="0" y="0">+</tspan></text>
</svg>
